<svg width="642" height="227" viewBox="0 0 642 227" fill="none" xmlns="http://www.w3.org/2000/svg">
<g clip-path="url(#clip0_6_375)">
<path d="M131.201 227L32.9696 170.25V157.024H51.2758V159.68L131.201 205.861L211.126 159.68V67.3196L131.201 21.1576L51.2758 67.3196V96.2442H32.9696V56.75L131.201 0L229.432 56.75V170.25L131.201 227Z" fill="white"/>
<path d="M29.6378 131.214L39.9992 142.04H54.6625L44.3011 131.214H29.6378Z" fill="url(#paint0_linear_6_375)"/>
<path d="M54.095 134.713L67.605 148.03H90.9637L78.2775 134.713H54.095Z" fill="url(#paint1_linear_6_375)"/>
<path d="M90.7257 141.234L106.213 156.749H131.787L116.281 141.234H90.7257Z" fill="url(#paint2_linear_6_375)"/>
<path d="M118.698 136.361L131.677 149.166H149.837L137.663 136.361H118.698Z" fill="url(#paint3_linear_6_375)"/>
<path d="M0 122.916L9.11651 132.423H21.9858L12.8876 122.916H0Z" fill="url(#paint4_linear_6_375)"/>
<path d="M29.5097 113.5H12.668L24.5487 125.205H40.6399L29.5097 113.5Z" fill="url(#paint5_linear_6_375)"/>
<path d="M226.064 83.8428L188.92 124.235L151.594 83.8428H115.348H89.5724L104.181 98.2592H128.638L147.768 118.977H147.75H127.027L114.78 105.825H83.4764L91.0369 113.5H68.7216L64.383 107.84H38.2966L46.864 117.347L38.8641 117.713L52.2826 131.782H75.5498L67.7514 123.923H76.1539L88.1079 136.361H118.698L110.716 127.037H129.498L137.663 136.361H163.804L175.63 149.166H149.837L164.463 163.582H188.92L262.383 83.8428H226.064Z" fill="url(#paint6_linear_6_375)"/>
<path d="M347.251 129.51H323.343L284.882 53.3977H307.801L335.48 110.679L363.104 53.3977H386.024L347.27 129.51H347.251Z" fill="white"/>
<path d="M480.667 129.51V53.3977H501.207V112.822H556.73V129.492H480.667V129.51Z" fill="white"/>
<path d="M564.235 129.51V53.3977H630.266L638.339 69.6277H585.306V82.194H630.247L638.32 98.424H585.287V113.262H641.963V129.492H564.198L564.235 129.51Z" fill="white"/>
<path d="M436.256 53.3977H413.337L373.539 129.51H396.44L403.598 115.112H431.259L438.636 100.274H410.957L424.906 72.2472L438.746 100.274H438.636L445.977 115.112H445.995L453.135 129.51H476.054L436.256 53.3977Z" fill="white"/>
<path d="M357.796 166.843L356.148 162.08H346.08L344.432 166.843H340.203L348.789 143.194H353.457L362.006 166.843H357.814H357.796ZM347.361 158.435H354.848L351.095 147.755L347.343 158.435H347.361Z" fill="white"/>
<path d="M371.36 143.194H375.241V158.764C375.241 161.64 376.926 163.491 380.312 163.491C383.699 163.491 385.383 161.64 385.383 158.764V143.194H389.264V159.003C389.264 161.531 388.422 163.527 386.756 165.048C385.108 166.531 382.948 167.282 380.312 167.282C377.676 167.282 375.516 166.531 373.868 165.048C372.221 163.527 371.36 161.531 371.36 159.003V143.194Z" fill="white"/>
<path d="M416.87 143.194V146.913H410.225V166.843H406.344V146.913H399.662V143.194H416.888H416.87Z" fill="white"/>
<path d="M437.226 167.282C433.821 167.282 430.911 166.092 428.513 163.729C426.151 161.329 424.961 158.416 424.961 155.009C424.961 151.602 426.151 148.689 428.513 146.326C430.874 143.963 433.821 142.736 437.226 142.736C440.631 142.736 443.542 143.927 445.904 146.326C448.302 148.689 449.492 151.602 449.492 155.009C449.492 158.416 448.302 161.329 445.904 163.729C443.542 166.092 440.631 167.282 437.226 167.282ZM437.226 163.491C439.588 163.491 441.583 162.685 443.176 161.091C444.805 159.461 445.611 157.446 445.611 155.009C445.611 152.573 444.805 150.558 443.176 148.964C441.583 147.334 439.588 146.528 437.226 146.528C434.865 146.528 432.869 147.334 431.259 148.964C429.648 150.595 428.86 152.573 428.86 155.009C428.86 157.446 429.666 159.479 431.259 161.091C432.888 162.685 434.865 163.491 437.226 163.491Z" fill="white"/>
<path d="M475.779 161.476L479.129 159.515C480.081 162.19 482.04 163.509 485.006 163.509C487.971 163.509 489.399 162.263 489.399 160.395C489.399 159.406 488.996 158.709 488.209 158.197C487.44 157.684 486.012 157.116 484.017 156.511C481.747 155.834 480.649 155.394 479.056 154.35C477.537 153.269 476.768 151.712 476.768 149.587C476.768 147.462 477.518 145.832 479.001 144.623C480.484 143.377 482.278 142.773 484.365 142.773C488.154 142.773 491.083 144.733 492.603 147.975L489.326 149.862C488.337 147.664 486.69 146.546 484.365 146.546C482.04 146.546 480.649 147.7 480.649 149.477C480.649 151.254 481.802 152.042 485.408 153.159C486.324 153.47 486.964 153.672 487.367 153.837C487.807 153.965 488.374 154.203 489.125 154.515C489.893 154.826 490.479 155.156 490.845 155.467C492.09 156.456 493.445 158.068 493.28 160.34C493.28 162.465 492.511 164.187 490.955 165.451C489.436 166.696 487.404 167.301 484.914 167.301C480.356 167.301 477.042 165.103 475.798 161.494L475.779 161.476Z" fill="white"/>
<path d="M518.231 143.194H522.112V166.843H518.231V156.603H508.108V166.843H504.227V143.194H508.108V152.884H518.231V143.194Z" fill="white"/>
<path d="M545.691 167.282C542.286 167.282 539.375 166.092 536.977 163.729C534.616 161.329 533.426 158.416 533.426 155.009C533.426 151.602 534.616 148.689 536.977 146.326C539.339 143.963 542.286 142.736 545.691 142.736C549.096 142.736 552.006 143.927 554.368 146.326C556.766 148.689 557.956 151.602 557.956 155.009C557.956 158.416 556.766 161.329 554.368 163.729C552.006 166.092 549.096 167.282 545.691 167.282ZM545.691 163.491C548.052 163.491 550.048 162.685 551.64 161.091C553.27 159.461 554.075 157.446 554.075 155.009C554.075 152.573 553.27 150.558 551.64 148.964C550.048 147.334 548.052 146.528 545.691 146.528C543.329 146.528 541.334 147.334 539.723 148.964C538.112 150.595 537.325 152.573 537.325 155.009C537.325 157.446 538.13 159.479 539.723 161.091C541.352 162.685 543.329 163.491 545.691 163.491Z" fill="white"/>
<path d="M577.983 143.194C580.216 143.194 582.065 143.945 583.548 145.429C585.068 146.913 585.818 148.781 585.818 150.979C585.818 153.177 585.068 155.009 583.548 156.53C582.065 158.013 580.198 158.764 577.983 158.764H573.15V166.879H569.269V143.231H577.983V143.194ZM577.983 155.083C580.271 155.083 581.937 153.361 581.937 150.961C581.937 148.561 580.29 146.839 577.983 146.839H573.15V155.083H577.983Z" fill="white"/>
</g>
<defs>
<linearGradient id="paint0_linear_6_375" x1="29.6378" y1="136.636" x2="54.6625" y2="136.636" gradientUnits="userSpaceOnUse">
<stop stop-color="#61BFB8"/>
<stop offset="1" stop-color="#04789B"/>
</linearGradient>
<linearGradient id="paint1_linear_6_375" x1="54.095" y1="141.38" x2="90.9637" y2="141.38" gradientUnits="userSpaceOnUse">
<stop stop-color="#61BFB8"/>
<stop offset="1" stop-color="#04789B"/>
</linearGradient>
<linearGradient id="paint2_linear_6_375" x1="90.7257" y1="149.001" x2="131.787" y2="149.001" gradientUnits="userSpaceOnUse">
<stop stop-color="#61BFB8"/>
<stop offset="1" stop-color="#04789B"/>
</linearGradient>
<linearGradient id="paint3_linear_6_375" x1="118.698" y1="142.773" x2="149.837" y2="142.773" gradientUnits="userSpaceOnUse">
<stop stop-color="#61BFB8"/>
<stop offset="1" stop-color="#04789B"/>
</linearGradient>
<linearGradient id="paint4_linear_6_375" x1="0" y1="127.66" x2="21.9858" y2="127.66" gradientUnits="userSpaceOnUse">
<stop stop-color="#61BFB8"/>
<stop offset="1" stop-color="#04789B"/>
</linearGradient>
<linearGradient id="paint5_linear_6_375" x1="12.668" y1="119.362" x2="40.6399" y2="119.362" gradientUnits="userSpaceOnUse">
<stop stop-color="#61BFB8"/>
<stop offset="1" stop-color="#04789B"/>
</linearGradient>
<linearGradient id="paint6_linear_6_375" x1="38.2966" y1="123.722" x2="262.383" y2="123.722" gradientUnits="userSpaceOnUse">
<stop stop-color="#61BFB8"/>
<stop offset="1" stop-color="#04789B"/>
</linearGradient>
<clipPath id="clip0_6_375">
<rect width="642" height="227" fill="white"/>
</clipPath>
</defs>
</svg>
